<?xml version="1.0" encoding="UTF-8"?>
<svg xmlns="http://www.w3.org/2000/svg" xmlns:xlink="http://www.w3.org/1999/xlink" width="52px" height="52px" viewBox="0 0 52 52" version="1.1">
<g id="surface1">
<path style=" stroke:none;fill-rule:nonzero;fill:rgb(0%,0%,0%);fill-opacity:1;" d="M 26 0 C 11.664062 0 0 11.664062 0 26 C 0 40.335938 11.664062 52 26 52 C 40.335938 52 52 40.335938 52 26 C 52 11.664062 40.335938 0 26 0 Z M 14.285156 34.152344 L 11.097656 29.484375 L 10.277344 29.484375 L 10.277344 34.152344 L 7.042969 34.152344 L 7.042969 17.660156 L 10.277344 17.660156 L 10.277344 27.035156 L 11.011719 27.035156 L 13.6875 22.742188 L 17.289062 22.742188 L 13.601562 27.902344 L 17.851562 34.152344 Z M 21.628906 31.085938 C 21.964844 31.710938 22.566406 32.027344 23.398438 32.027344 C 23.953125 32.027344 24.40625 31.871094 24.738281 31.550781 C 25.074219 31.230469 25.25 30.871094 25.25 30.269531 L 28.074219 30.269531 L 28.105469 30.328125 C 28.132812 31.492188 27.695312 32.464844 26.789062 33.25 C 25.882812 34.035156 24.757812 34.425781 23.414062 34.425781 C 21.695312 34.425781 20.367188 33.882812 19.4375 32.792969 C 18.507812 31.707031 18.039062 30.3125 18.039062 28.605469 L 18.039062 28.285156 C 18.039062 26.589844 18.503906 25.191406 19.433594 24.097656 C 20.359375 23.003906 21.683594 22.457031 23.402344 22.457031 C 24.824219 22.457031 25.96875 22.863281 26.839844 23.671875 C 27.710938 24.480469 28.132812 25.597656 28.105469 26.921875 L 28.082031 27.039062 L 25.25 27.039062 C 25.25 26.390625 25.085938 25.894531 24.757812 25.5 C 24.429688 25.105469 23.980469 24.878906 23.40625 24.878906 C 22.582031 24.878906 21.964844 25.1875 21.628906 25.824219 C 21.289062 26.464844 21.085938 27.273438 21.085938 28.28125 L 21.085938 28.601562 C 21.085938 29.628906 21.289062 30.457031 21.628906 31.085938 Z M 36.640625 34.152344 C 36.527344 33.964844 36.429688 33.636719 36.347656 33.34375 C 36.265625 33.054688 36.207031 32.765625 36.171875 32.460938 C 35.851562 33.023438 35.429688 33.496094 34.910156 33.863281 C 34.386719 34.234375 33.761719 34.421875 33.039062 34.421875 C 31.832031 34.421875 30.898438 34.113281 30.246094 33.488281 C 29.59375 32.867188 29.265625 32.023438 29.265625 30.949219 C 29.265625 29.820312 29.699219 28.953125 30.570312 28.332031 C 31.441406 27.710938 32.710938 27.40625 34.382812 27.40625 L 36.195312 27.40625 L 36.195312 26.472656 C 36.195312 25.921875 36.011719 25.492188 35.71875 25.183594 C 35.429688 24.878906 34.980469 24.726562 34.410156 24.726562 C 33.90625 24.726562 33.507812 24.847656 33.234375 25.09375 C 32.960938 25.339844 32.820312 25.679688 32.820312 26.113281 L 29.8125 26.101562 L 29.800781 26.039062 C 29.75 25.0625 30.171875 24.222656 31.066406 23.515625 C 31.960938 22.808594 33.136719 22.457031 34.59375 22.457031 C 35.972656 22.457031 37.09375 22.808594 37.953125 23.507812 C 38.8125 24.207031 39.242188 25.203125 39.242188 26.496094 L 39.242188 31.257812 C 39.242188 31.800781 39.28125 32.28125 39.363281 32.757812 C 39.445312 33.234375 39.574219 33.734375 39.753906 34.152344 Z M 41.691406 34.152344 L 41.691406 17.660156 L 44.925781 17.660156 L 44.925781 34.152344 Z M 41.691406 34.152344 "/>
<path style=" stroke:none;fill-rule:nonzero;fill:rgb(0%,0%,0%);fill-opacity:1;" d="M 32.878906 29.605469 C 32.539062 29.933594 32.367188 30.355469 32.367188 30.824219 C 32.367188 31.207031 32.496094 31.527344 32.75 31.761719 C 33.007812 31.996094 33.355469 32.117188 33.796875 32.117188 C 34.34375 32.117188 34.867188 31.984375 35.292969 31.714844 C 35.71875 31.445312 35.964844 31.132812 36.195312 30.78125 L 36.195312 29.070312 L 34.382812 29.070312 C 33.71875 29.070312 33.21875 29.273438 32.878906 29.605469 Z M 32.878906 29.605469 "/>
</g>
</svg>
