<?xml version="1.0" encoding="UTF-8"?>
<svg xmlns="http://www.w3.org/2000/svg" xmlns:xlink="http://www.w3.org/1999/xlink" width="55px" height="55px" viewBox="0 0 55 55" version="1.1">
<g id="surface1">
<path style="fill:none;stroke-width:2;stroke-linecap:round;stroke-linejoin:round;stroke:rgb(0%,0%,0%);stroke-opacity:1;stroke-miterlimit:4;" d="M 14.999998 13.000567 C 14.999998 11.343749 13.656817 10.000567 11.999999 10.000567 C 10.343181 10.000567 8.999999 11.343749 8.999999 13.000567 " transform="matrix(2.291667,0,0,2.291667,0,0)"/>
<path style="fill:none;stroke-width:2;stroke-linecap:round;stroke-linejoin:round;stroke:rgb(0%,0%,0%);stroke-opacity:1;stroke-miterlimit:4;" d="M 4.000568 19.499998 L 4.000568 4.499999 C 4.000568 3.119318 5.120454 1.999432 6.499431 1.999432 L 19.000566 1.999432 C 19.552839 1.999432 19.999429 2.447727 19.999429 3 L 19.999429 20.999997 C 19.999429 21.55227 19.552839 22.000566 19.000566 22.000566 L 6.499431 22.000566 C 5.120454 22.000566 4.000568 20.880679 4.000568 19.499998 C 4.000568 18.119316 5.120454 16.99943 6.499431 16.99943 L 19.999429 16.99943 " transform="matrix(2.291667,0,0,2.291667,0,0)"/>
<path style="fill:none;stroke-width:2;stroke-linecap:round;stroke-linejoin:round;stroke:rgb(0%,0%,0%);stroke-opacity:1;stroke-miterlimit:4;" d="M 13.99943 7.999431 C 13.99943 6.894886 13.104544 5.999999 11.999999 5.999999 C 10.895453 5.999999 10.000567 6.894886 10.000567 7.999431 C 10.000567 9.103976 10.895453 10.000567 11.999999 10.000567 C 13.104544 10.000567 13.99943 9.103976 13.99943 7.999431 Z M 13.99943 7.999431 " transform="matrix(2.291667,0,0,2.291667,0,0)"/>
</g>
</svg>
